<?xml version="1.0" encoding="UTF-8" standalone="no"?>
<svg
   xmlns:dc="http://purl.org/dc/elements/1.1/"
   xmlns:cc="http://creativecommons.org/ns#"
   xmlns:rdf="http://www.w3.org/1999/02/22-rdf-syntax-ns#"
   xmlns:svg="http://www.w3.org/2000/svg"
   xmlns="http://www.w3.org/2000/svg"
   width="1200"
   height="300"
   id="svg3177"
   version="1.1">
  <defs
     id="defs3179" />
  <metadata
     id="metadata3182">
    <rdf:RDF>
      <cc:Work
         rdf:about="">
        <dc:format>image/svg+xml</dc:format>
        <dc:type
           rdf:resource="http://purl.org/dc/dcmitype/StillImage" />
        <dc:title></dc:title>
      </cc:Work>
    </rdf:RDF>
  </metadata>
  <g
     id="layer1"
     transform="translate(0,240)">
    <g
       id="g3214"
       transform="matrix(13.218245,0,0,13.218245,-530.67691,-519.13362)">
      <g
         id="g36">
        <g
           id="g131"
           transform="matrix(0.43412806,0,0,0.43412806,27.332367,14.694311)">
          <g
             id="text2985-0-3-5-6-6"
             style="font-style:normal;font-variant:normal;font-weight:bold;font-stretch:normal;font-size:18px;line-height:125%;font-family:'Hans Kendrick 3';-inkscape-font-specification:'Hans Kendrick 3 Bold';letter-spacing:0px;word-spacing:0px;fill:#ffffff;fill-opacity:1;stroke:none"
             transform="translate(-186.83785,-551.87114)">
            <path
               style="fill:#ffffff"
               id="path3092-7"
               d="m 241.10948,582.8111 c 1.242,0 2.394,0.756 2.88,1.89 h -5.76 c 0.486,-1.134 1.638,-1.89 2.88,-1.89 m 2.88,4.41 c -0.486,1.134 -1.638,1.89 -2.88,1.89 -1.728,0 -3.15,-1.422 -3.15,-3.15 h 7.56 c 0,-2.43 -1.98001,-4.41 -4.41,-4.41 -2.43,0 -4.41,1.98 -4.41,4.41 0,2.43 1.98,4.41 4.41,4.41 1.728,0 3.348,-1.044 4.032,-2.628 l -1.152,-0.504 v -0.018" />
            <path
               style="fill:#ffffff"
               id="path3094-5"
               d="m 254.0751,584.8271 c 0,-1.8 -1.242,-3.276 -3.06,-3.276 -1.026,0 -1.818,0.486 -2.25,1.062 v -5.922 h -1.26 c 0,8.69399 0,7.79401 0,13.5 h 1.26 v -5.418 c 0,-1.098 1.026,-1.962 2.124,-1.962 1.134,0 1.926,0.9 1.926,2.016 v 5.364 h 1.26 c 0,-5.70599 0,-5.364 0,-5.364" />
            <path
               style="fill:#ffffff"
               id="path3096-3"
               d="m 260.26963,582.8111 c 1.728,0 3.15,1.422 3.15,3.15 0,1.728 -1.422,3.15 -3.15,3.15 -1.728,0 -3.15,-1.422 -3.15,-3.15 0,-1.728 1.422,-3.15 3.15,-3.15 m 0,7.56 c 1.17,0 2.34,-0.468 3.15,-1.332 v 1.152 h 1.26 v -8.46 h -1.26 v 1.152 c -0.81,-0.864 -1.98,-1.332 -3.15,-1.332 -2.42999,0 -4.41,1.98 -4.41,4.41 0,2.43 1.98001,4.41 4.41,4.41" />
            <path
               style="fill:#ffffff"
               id="path3098-5"
               d="m 279.0726,584.8271 c 0,-1.764 -1.224,-3.276 -3.06,-3.276 -1.08,0 -2.142,0.522 -2.808,1.35 -0.522,-0.81 -1.404,-1.35 -2.502,-1.35 -0.864,0 -1.728,0.378 -2.25,1.062 v -0.882 h -1.26 v 8.46 h 1.26 v -5.418 c 0,-1.116 1.062,-1.962 2.124,-1.962 1.134,0 1.926,0.936 1.926,2.016 v 5.364 h 1.26 v -5.364 -0.054 c 0,-1.116 1.062,-1.962 2.142,-1.962 1.116,0 1.908,0.936 1.908,2.016 v 5.364 h 1.26 v -5.364" />
            <path
               style="fill:#ffffff"
               id="path3100-6"
               d="m 285.26573,582.8111 c 1.728,0 3.15,1.422 3.15,3.15 0,1.728 -1.422,3.15 -3.15,3.15 -1.728,0 -3.15,-1.422 -3.15,-3.15 0,-1.728 1.422,-3.15 3.15,-3.15 m 0,7.56 c 1.17,0 2.34,-0.468 3.15,-1.332 v 1.152 h 1.26 v -8.46 h -1.26 v 1.152 c -0.81,-0.864 -1.98,-1.332 -3.15,-1.332 -2.43,0 -4.41,1.98 -4.41,4.41 0,2.43 1.98,4.41 4.41,4.41" />
          </g>
          <g
             id="text2989-8-3-4-5-2"
             style="font-style:normal;font-variant:normal;font-weight:normal;font-stretch:normal;font-size:18px;line-height:125%;font-family:'Hans Kendrick 3';-inkscape-font-specification:'Hans Kendrick 3';letter-spacing:0px;word-spacing:0px;fill:#ffffff;fill-opacity:1;stroke:none"
             transform="translate(-186.83785,-551.87114)">
            <path
               style="fill:#ffffff"
               id="path3103-9"
               d="m 291.88234,590.1911 h 1.26 v -13.5 h -1.26 v 13.5" />
            <path
               style="fill:#ffffff"
               id="path3105-1"
               d="m 299.54922,582.8111 c 1.728,0 3.15,1.422 3.15,3.15 0,1.728 -1.422,3.15 -3.15,3.15 -1.728,0 -3.15,-1.422 -3.15,-3.15 0,-1.728 1.422,-3.15 3.15,-3.15 m 0,7.56 c 1.17,0 2.34,-0.468 3.15,-1.332 v 1.152 h 1.26 v -8.46 h -1.26 v 1.152 c -0.81,-0.864 -1.98,-1.332 -3.15,-1.332 -2.43,0 -4.41,1.98 -4.41,4.41 0,2.43 1.98,4.41 4.41,4.41" />
            <path
               style="fill:#ffffff"
               id="path3107-2"
               d="m 310.88219,582.8111 c 1.728,0 3.15,1.422 3.15,3.15 0,1.728 -1.422,3.15 -3.15,3.15 -1.728,0 -3.15,-1.422 -3.15,-3.15 0,-1.728 1.422,-3.15 3.15,-3.15 m 0,7.56 c 2.43,0 4.41,-1.98 4.41,-4.41 0,-2.43 -1.98,-4.41 -4.41,-4.41 -1.17,0 -2.34,0.468 -3.15,1.332 v -6.192 h -1.26 v 13.5 h 1.26 v -1.152 c 0.81,0.864 1.98,1.332 3.15,1.332" />
          </g>
          <g
             id="text3869-4-2-5-7"
             style="font-style:normal;font-variant:normal;font-weight:normal;font-stretch:normal;font-size:18px;line-height:125%;font-family:Ubuntu;-inkscape-font-specification:Ubuntu;letter-spacing:0px;word-spacing:0px;fill:#8ab420;fill-opacity:1;stroke:none"
             transform="translate(-186.83785,-551.87114)">
            <path
               id="path3110-0"
               d="m 231.72417,580.82652 h 3.546 v 1.404 h -3.546 v 4.32 c 0,0.46801 0.036,0.85801 0.108,1.17 0.072,0.30001 0.18,0.54001 0.324,0.72 0.144,0.16801 0.324,0.288 0.54,0.36 0.216,0.072 0.468,0.108 0.756,0.108 0.50399,0 0.90599,-0.054 1.206,-0.162 0.31199,-0.12 0.52799,-0.20399 0.648,-0.252 l 0.324,1.386 c -0.16801,0.084 -0.46201,0.186 -0.882,0.306 -0.42001,0.132 -0.9,0.198 -1.44,0.198 -0.636,0 -1.164,-0.078 -1.584,-0.234 -0.408,-0.168 -0.738,-0.414 -0.99,-0.738 -0.252,-0.324 -0.432,-0.72 -0.54,-1.188 -0.096,-0.47999 -0.144,-1.03199 -0.144,-1.656 v -8.352 l 1.674,-0.288 v 2.898" />
          </g>
        </g>
        <g
           aria-label="Data Collector"
           style="font-style:normal;font-weight:normal;font-size:11.38776016px;line-height:1.25;font-family:sans-serif;letter-spacing:0px;word-spacing:0px;fill:#ffffff;fill-opacity:1;stroke:none;stroke-width:0.28469402"
           id="text117"
           transform="matrix(0.8257269,0,0,0.8257269,8.1848267,13.287174)">
          <g
             id="g164"
             style="fill:#88aa00">
            <path
               id="path133"
               style="font-style:normal;font-variant:normal;font-weight:normal;font-stretch:normal;font-family:'URW Gothic L';-inkscape-font-specification:'URW Gothic L';fill:#88aa00;stroke-width:0.28469402"
               d="m 45.907698,33.835892 h 2.266165 c 1.264041,0 2.152286,-0.193592 2.892491,-0.626327 1.275429,-0.751592 1.947307,-1.98147 1.947307,-3.552981 0,-1.582899 -0.66049,-2.835553 -1.913144,-3.575757 -0.797143,-0.478286 -1.685388,-0.66049 -3.211348,-0.66049 h -1.981471 z m 0.842695,-0.76298 v -6.889595 h 1.172939 c 1.275429,0 2.072572,0.159429 2.710287,0.546612 0.96796,0.580776 1.52596,1.639838 1.52596,2.892491 0,1.104613 -0.432735,2.072573 -1.207103,2.6989 -0.671878,0.535224 -1.537347,0.751592 -3.029144,0.751592 z" />
            <path
               id="path135"
               style="font-style:normal;font-variant:normal;font-weight:normal;font-stretch:normal;font-family:'URW Gothic L';-inkscape-font-specification:'URW Gothic L';fill:#88aa00;stroke-width:0.28469402"
               d="M 60.576735,27.606787 H 59.734041 V 28.7114 c -0.614939,-0.86547 -1.377919,-1.252654 -2.459756,-1.252654 -1.867593,0 -3.279675,1.412082 -3.279675,3.279675 0,1.856205 1.42347,3.245512 3.336614,3.245512 1.059061,0 1.742327,-0.353021 2.402817,-1.241266 v 1.093225 h 0.842694 z m -3.279675,0.626327 c 1.366532,0 2.436981,1.070449 2.436981,2.459756 0,1.412082 -1.047674,2.516695 -2.39143,2.516695 -1.412082,0 -2.493919,-1.104613 -2.493919,-2.528083 0,-1.355143 1.093225,-2.448368 2.448368,-2.448368 z" />
            <path
               id="path137"
               style="font-style:normal;font-variant:normal;font-weight:normal;font-stretch:normal;font-family:'URW Gothic L';-inkscape-font-specification:'URW Gothic L';fill:#88aa00;stroke-width:0.28469402"
               d="m 62.781335,33.835892 h 0.842694 v -5.466125 h 1.400695 v -0.76298 h -1.400695 v -2.18645 h -0.842694 v 2.18645 h -1.343756 v 0.76298 h 1.343756 z" />
            <path
               id="path139"
               style="font-style:normal;font-variant:normal;font-weight:normal;font-stretch:normal;font-family:'URW Gothic L';-inkscape-font-specification:'URW Gothic L';fill:#88aa00;stroke-width:0.28469402"
               d="M 72.231396,27.606787 H 71.388701 V 28.7114 c -0.614939,-0.86547 -1.377919,-1.252654 -2.459756,-1.252654 -1.867593,0 -3.279675,1.412082 -3.279675,3.279675 0,1.856205 1.42347,3.245512 3.336614,3.245512 1.059062,0 1.742327,-0.353021 2.402817,-1.241266 v 1.093225 h 0.842695 z m -3.279675,0.626327 c 1.366531,0 2.43698,1.070449 2.43698,2.459756 0,1.412082 -1.047674,2.516695 -2.391429,2.516695 -1.412083,0 -2.49392,-1.104613 -2.49392,-2.528083 0,-1.355143 1.093225,-2.448368 2.448369,-2.448368 z" />
          </g>
          <g
             id="g175"
             style="fill:#88aa00">
            <path
               id="path141"
               style="font-style:normal;font-variant:normal;font-weight:normal;font-stretch:normal;font-family:'URW Gothic L';-inkscape-font-specification:'URW Gothic L';fill:#88aa00;stroke-width:0.28469402"
               d="m 83.94869,31.626666 c -0.353021,0.444123 -0.558001,0.671878 -0.842695,0.888246 -0.558,0.444122 -1.32098,0.694653 -2.08396,0.694653 -1.947307,0 -3.552981,-1.617062 -3.552981,-3.587145 0,-2.027021 1.537348,-3.575756 3.541594,-3.575756 0.728816,0 1.412082,0.193592 1.970082,0.569388 0.375796,0.239143 0.603551,0.489673 0.922409,0.990735 h 0.945184 c -0.649103,-1.446246 -2.129511,-2.334491 -3.871839,-2.334491 -2.505307,0 -4.361512,1.867593 -4.361512,4.384288 0,2.459756 1.901756,4.327349 4.418451,4.327349 1.708164,0 3.006369,-0.797144 3.849063,-2.357267 z" />
            <path
               id="path143"
               style="font-style:normal;font-variant:normal;font-weight:normal;font-stretch:normal;font-family:'URW Gothic L';-inkscape-font-specification:'URW Gothic L';fill:#88aa00;stroke-width:0.28469402"
               d="m 89.11304,27.458746 c -1.844818,0 -3.268288,1.400695 -3.268288,3.222736 0,1.913144 1.400695,3.302451 3.336614,3.302451 1.822042,0 3.165798,-1.377919 3.165798,-3.245512 0,-1.901756 -1.366532,-3.279675 -3.234124,-3.279675 z m 0,0.774368 c 1.366531,0 2.380041,1.070449 2.380041,2.516695 0,1.42347 -0.979347,2.459756 -2.33449,2.459756 -1.434858,0 -2.459757,-1.047674 -2.459757,-2.505307 0,-1.412083 1.036287,-2.471144 2.414206,-2.471144 z" />
            <path
               id="path145"
               style="font-style:normal;font-variant:normal;font-weight:normal;font-stretch:normal;font-family:'URW Gothic L';-inkscape-font-specification:'URW Gothic L';fill:#88aa00;stroke-width:0.28469402"
               d="m 93.534869,33.835892 h 0.842694 v -8.415555 h -0.842694 z" />
            <path
               id="path147"
               style="font-style:normal;font-variant:normal;font-weight:normal;font-stretch:normal;font-family:'URW Gothic L';-inkscape-font-specification:'URW Gothic L';fill:#88aa00;stroke-width:0.28469402"
               d="m 95.803527,33.835892 h 0.842694 v -8.415555 h -0.842694 z" />
            <path
               id="path149"
               style="font-style:normal;font-variant:normal;font-weight:normal;font-stretch:normal;font-family:'URW Gothic L';-inkscape-font-specification:'URW Gothic L';fill:#88aa00;stroke-width:0.28469402"
               d="m 104.31267,31.000339 c 0,-0.854082 -0.11387,-1.377919 -0.42134,-1.924531 -0.558,-0.990735 -1.63984,-1.617062 -2.82417,-1.617062 -1.810652,0 -3.234122,1.42347 -3.234122,3.234124 0,1.844817 1.446245,3.291063 3.291062,3.291063 0.79714,0 1.54874,-0.296082 2.11812,-0.831307 0.44413,-0.421347 0.74021,-0.854082 0.91102,-1.366531 h -0.87685 c -0.35302,0.854082 -1.22988,1.42347 -2.17507,1.42347 -1.275424,0 -2.357262,-0.979347 -2.425588,-2.209226 z M 98.698507,30.23736 c 0.227755,-1.195715 1.17294,-2.004246 2.357263,-2.004246 1.20711,0 2.12951,0.76298 2.41421,2.004246 z" />
            <path
               id="path151"
               style="font-style:normal;font-variant:normal;font-weight:normal;font-stretch:normal;font-family:'URW Gothic L';-inkscape-font-specification:'URW Gothic L';fill:#88aa00;stroke-width:0.28469402"
               d="m 110.72843,32.002462 c -0.6491,0.86547 -1.25265,1.207103 -2.12951,1.207103 -1.40069,0 -2.50531,-1.104613 -2.50531,-2.482532 0,-1.400694 1.08184,-2.493919 2.47115,-2.493919 0.92241,0 1.68539,0.444122 2.16367,1.264041 h 0.94519 c -0.50107,-1.252654 -1.69678,-2.038409 -3.09747,-2.038409 -1.8676,0 -3.33662,1.434858 -3.33662,3.245512 0,1.856205 1.48041,3.279675 3.39355,3.279675 0.77437,0 1.4918,-0.250531 2.07258,-0.706042 0.39857,-0.318857 0.63771,-0.626326 0.97934,-1.275429 z" />
            <path
               id="path153"
               style="font-style:normal;font-variant:normal;font-weight:normal;font-stretch:normal;font-family:'URW Gothic L';-inkscape-font-specification:'URW Gothic L';fill:#88aa00;stroke-width:0.28469402"
               d="m 113.60366,33.835892 h 0.8427 v -5.466125 h 1.40069 v -0.76298 h -1.40069 v -2.18645 h -0.8427 v 2.18645 h -1.34375 v 0.76298 h 1.34375 z" />
            <path
               id="path155"
               style="font-style:normal;font-variant:normal;font-weight:normal;font-stretch:normal;font-family:'URW Gothic L';-inkscape-font-specification:'URW Gothic L';fill:#88aa00;stroke-width:0.28469402"
               d="m 119.73988,27.458746 c -1.84482,0 -3.26829,1.400695 -3.26829,3.222736 0,1.913144 1.4007,3.302451 3.33662,3.302451 1.82204,0 3.1658,-1.377919 3.1658,-3.245512 0,-1.901756 -1.36654,-3.279675 -3.23413,-3.279675 z m 0,0.774368 c 1.36653,0 2.38004,1.070449 2.38004,2.516695 0,1.42347 -0.97934,2.459756 -2.33449,2.459756 -1.43485,0 -2.45975,-1.047674 -2.45975,-2.505307 0,-1.412083 1.03628,-2.471144 2.4142,-2.471144 z" />
            <path
               id="path157"
               style="font-style:normal;font-variant:normal;font-weight:normal;font-stretch:normal;font-family:'URW Gothic L';-inkscape-font-specification:'URW Gothic L';fill:#88aa00;stroke-width:0.28469402"
               d="m 124.16172,33.835892 h 0.84269 v -3.632696 c 0,-1.161551 0.59217,-1.799266 1.76511,-1.913143 v -0.831307 c -0.89964,0.04555 -1.43486,0.353021 -1.76511,1.036286 v -0.888245 h -0.84269 z" />
          </g>
        </g>
      </g>
    </g>
  </g>
</svg>
